<mxfile host="app.diagrams.net" modified="2020-12-27T12:27:44.041Z" agent="5.0 (Macintosh; Intel Mac OS X 10_15_7) AppleWebKit/537.36 (KHTML, like Gecko) Chrome/87.0.4280.88 Safari/537.36" etag="oKUBp6I-apy6IZR0gtxp" version="13.8.0" type="github">
  <diagram id="dC51po_1LfpkDQlABEKm" name="Page-1">
    <mxGraphModel dx="1554" dy="914" grid="1" gridSize="10" guides="1" tooltips="1" connect="1" arrows="1" fold="1" page="1" pageScale="1" pageWidth="827" pageHeight="1169" math="0" shadow="0">
      <root>
        <mxCell id="0" />
        <mxCell id="1" parent="0" />
        <mxCell id="I0QAku0UB8bVVIkJYyCx-20" value="" style="rounded=0;whiteSpace=wrap;html=1;" parent="1" vertex="1">
          <mxGeometry x="40" y="90" width="800" height="530" as="geometry" />
        </mxCell>
        <mxCell id="I0QAku0UB8bVVIkJYyCx-11" value="" style="rounded=1;whiteSpace=wrap;html=1;" parent="1" vertex="1">
          <mxGeometry x="400" y="160" width="400" height="400" as="geometry" />
        </mxCell>
        <mxCell id="I0QAku0UB8bVVIkJYyCx-9" value="" style="rounded=1;whiteSpace=wrap;html=1;" parent="1" vertex="1">
          <mxGeometry x="80" y="160" width="280" height="400" as="geometry" />
        </mxCell>
        <mxCell id="I0QAku0UB8bVVIkJYyCx-1" value="Nuxt&lt;br&gt;(web)" style="whiteSpace=wrap;html=1;aspect=fixed;" parent="1" vertex="1">
          <mxGeometry x="160" y="240" width="120" height="120" as="geometry" />
        </mxCell>
        <mxCell id="I0QAku0UB8bVVIkJYyCx-2" value="Nginx&lt;br&gt;(nginx)" style="whiteSpace=wrap;html=1;aspect=fixed;" parent="1" vertex="1">
          <mxGeometry x="460" y="240" width="120" height="120" as="geometry" />
        </mxCell>
        <mxCell id="I0QAku0UB8bVVIkJYyCx-3" value="DB&lt;br&gt;(db)" style="shape=cylinder3;whiteSpace=wrap;html=1;boundedLbl=1;backgroundOutline=1;size=15;" parent="1" vertex="1">
          <mxGeometry x="539" y="410" width="120" height="120" as="geometry" />
        </mxCell>
        <mxCell id="I0QAku0UB8bVVIkJYyCx-4" value="Laravel&lt;br&gt;(api)" style="whiteSpace=wrap;html=1;aspect=fixed;" parent="1" vertex="1">
          <mxGeometry x="630" y="240" width="120" height="120" as="geometry" />
        </mxCell>
        <mxCell id="I0QAku0UB8bVVIkJYyCx-7" value="" style="endArrow=classic;html=1;entryX=0.5;entryY=0;entryDx=0;entryDy=0;" parent="1" target="I0QAku0UB8bVVIkJYyCx-1" edge="1">
          <mxGeometry width="50" height="50" relative="1" as="geometry">
            <mxPoint x="220" y="110" as="sourcePoint" />
            <mxPoint x="260" y="160" as="targetPoint" />
          </mxGeometry>
        </mxCell>
        <mxCell id="I0QAku0UB8bVVIkJYyCx-8" value="3000" style="text;html=1;strokeColor=none;fillColor=none;align=center;verticalAlign=middle;whiteSpace=wrap;rounded=0;" parent="1" vertex="1">
          <mxGeometry x="170" y="200" width="40" height="20" as="geometry" />
        </mxCell>
        <mxCell id="I0QAku0UB8bVVIkJYyCx-13" value="" style="endArrow=classic;startArrow=classic;html=1;exitX=1;exitY=0.5;exitDx=0;exitDy=0;entryX=0;entryY=0.5;entryDx=0;entryDy=0;" parent="1" source="I0QAku0UB8bVVIkJYyCx-2" target="I0QAku0UB8bVVIkJYyCx-4" edge="1">
          <mxGeometry width="50" height="50" relative="1" as="geometry">
            <mxPoint x="590" y="330" as="sourcePoint" />
            <mxPoint x="640" y="280" as="targetPoint" />
          </mxGeometry>
        </mxCell>
        <mxCell id="I0QAku0UB8bVVIkJYyCx-15" value="" style="endArrow=classic;startArrow=classic;html=1;entryX=0.5;entryY=1;entryDx=0;entryDy=0;exitX=0.855;exitY=0;exitDx=0;exitDy=4.35;exitPerimeter=0;" parent="1" source="I0QAku0UB8bVVIkJYyCx-3" target="I0QAku0UB8bVVIkJYyCx-4" edge="1">
          <mxGeometry width="50" height="50" relative="1" as="geometry">
            <mxPoint x="640" y="420" as="sourcePoint" />
            <mxPoint x="680" y="360" as="targetPoint" />
          </mxGeometry>
        </mxCell>
        <mxCell id="I0QAku0UB8bVVIkJYyCx-19" value="" style="endArrow=classic;startArrow=classic;html=1;exitX=1;exitY=0.5;exitDx=0;exitDy=0;entryX=0;entryY=0.5;entryDx=0;entryDy=0;" parent="1" source="I0QAku0UB8bVVIkJYyCx-1" target="I0QAku0UB8bVVIkJYyCx-2" edge="1">
          <mxGeometry width="50" height="50" relative="1" as="geometry">
            <mxPoint x="320" y="330" as="sourcePoint" />
            <mxPoint x="370" y="280" as="targetPoint" />
          </mxGeometry>
        </mxCell>
        <mxCell id="I0QAku0UB8bVVIkJYyCx-21" value="80" style="text;html=1;strokeColor=none;fillColor=none;align=center;verticalAlign=middle;whiteSpace=wrap;rounded=0;" parent="1" vertex="1">
          <mxGeometry x="414" y="270" width="40" height="20" as="geometry" />
        </mxCell>
        <mxCell id="I0QAku0UB8bVVIkJYyCx-22" value="9000" style="text;html=1;strokeColor=none;fillColor=none;align=center;verticalAlign=middle;whiteSpace=wrap;rounded=0;" parent="1" vertex="1">
          <mxGeometry x="580" y="270" width="50" height="20" as="geometry" />
        </mxCell>
        <mxCell id="I0QAku0UB8bVVIkJYyCx-23" value="5432" style="text;html=1;strokeColor=none;fillColor=none;align=center;verticalAlign=middle;whiteSpace=wrap;rounded=0;" parent="1" vertex="1">
          <mxGeometry x="670" y="390" width="40" height="20" as="geometry" />
        </mxCell>
        <mxCell id="I0QAku0UB8bVVIkJYyCx-24" value="sample-spa" style="text;html=1;strokeColor=none;fillColor=none;align=center;verticalAlign=middle;whiteSpace=wrap;rounded=0;fontSize=17;" parent="1" vertex="1">
          <mxGeometry x="299" y="100" width="230" height="30" as="geometry" />
        </mxCell>
        <mxCell id="I0QAku0UB8bVVIkJYyCx-25" value="Frontend" style="text;html=1;strokeColor=none;fillColor=none;align=center;verticalAlign=middle;whiteSpace=wrap;rounded=0;fontSize=12;" parent="1" vertex="1">
          <mxGeometry x="200" y="565" width="40" height="20" as="geometry" />
        </mxCell>
        <mxCell id="I0QAku0UB8bVVIkJYyCx-26" value="Backend" style="text;html=1;strokeColor=none;fillColor=none;align=center;verticalAlign=middle;whiteSpace=wrap;rounded=0;fontSize=12;" parent="1" vertex="1">
          <mxGeometry x="580" y="565" width="40" height="20" as="geometry" />
        </mxCell>
      </root>
    </mxGraphModel>
  </diagram>
</mxfile>
